<?xml version="1.0" encoding="UTF-8"?>
<svg width="55px" height="86px" viewBox="0 0 55 86" version="1.1" xmlns="http://www.w3.org/2000/svg" xmlns:xlink="http://www.w3.org/1999/xlink">
    <!-- Generator: Sketch 61.2 (89653) - https://sketch.com -->
    <title>Group 5</title>
    <desc>Created with Sketch.</desc>
    <g id="Page-1" stroke="none" stroke-width="1" fill="none" fill-rule="evenodd">
        <g id="ICONS" transform="translate(-175.000000, -200.000000)" fill-rule="nonzero">
            <g id="Group-5" transform="translate(175.000000, 200.000000)">
                <rect id="Rectangle" fill="#F9E109" x="2" y="16.3103448" width="43.3333333" height="68.6896552" rx="21.6666667"></rect>
                <polygon id="Path" fill="#ED3F42" points="2 33.4827586 45.3333333 33.4827586 45.3333333 50.6551724 2 50.6551724"></polygon>
                <polygon id="Path" fill="#ED3F42" points="2 50.6551724 45.3333333 50.6551724 45.3333333 67.8275862 2 67.8275862"></polygon>
                <path d="M2,67.8275862 L45.3333333,67.8275862 L45.3333333,79.2758621 C45.3333333,82.4372162 42.7465341,85 39.5555556,85 L7.77777778,85 C4.58679922,85 2,82.4372162 2,79.2758621 L2,67.8275862 Z" id="Path" fill="#ED3F42"></path>
                <path d="M7.77777778,16.3103448 L39.5555556,16.3103448 C42.7465341,16.3103448 45.3333333,18.8731287 45.3333333,22.0344828 L45.3333333,33.4827586 L2,33.4827586 L2,22.0344828 C2,18.8731287 4.58679922,16.3103448 7.77777778,16.3103448 Z" id="Path" fill="#ED3F42"></path>
                <polygon id="Path" fill="#ED3F42" points="2 33.4827586 13.5555556 33.4827586 13.5555556 50.6551724 2 50.6551724"></polygon>
                <path d="M13.5555556,53.5172414 L13.5555556,50.6551724 L2,50.6551724 L2,67.8275862 L18.6414444,67.8275862 C15.3457675,63.7731757 13.5509053,58.7229088 13.5555556,53.5172414 L13.5555556,53.5172414 Z" id="Path" fill="#ED3F42"></path>
                <path d="M18.6414444,67.8275862 L2,67.8275862 L2,79.2758621 C2,82.4372162 4.58679922,85 7.77777778,85 L39.5555556,85 C42.7465341,85 45.3333333,82.4372162 45.3333333,79.2758621 L45.3333333,76.4137931 L36.6666667,76.4137931 C29.6526501,76.4175871 23.018447,73.2574241 18.6414444,67.8275862 Z" id="Path" fill="#ED3F42"></path>
                <path d="M13.5555556,16.3103448 L7.77777778,16.3103448 C4.58679922,16.3103448 2,18.8731287 2,22.0344828 L2,33.4827586 L13.5555556,33.4827586 L13.5555556,16.3103448 Z" id="Path" fill="#ED3F42"></path>
                <path d="M17.8888889,2 L29.4444444,2 C31.8376784,2 33.7777778,3.92208788 33.7777778,6.29310345 L33.7777778,10.5862069 L13.5555556,10.5862069 L13.5555556,6.29310345 C13.5555556,3.92208788 15.495655,2 17.8888889,2 L17.8888889,2 Z" id="Path" fill="#ED3F42"></path>
                <path d="M12.1111111,10.5862069 L35.2222222,10.5862069 C36.8177115,10.5862069 38.1111111,11.8675988 38.1111111,13.4482759 L38.1111111,16.3103448 L9.22222222,16.3103448 L9.22222222,13.4482759 C9.22222222,11.8675988 10.5156218,10.5862069 12.1111111,10.5862069 Z" id="Path" fill="#ED3F42"></path>
                <polygon id="Path" fill="#ED3F42" points="25.1111111 24.8965517 13.5555556 44.9310345 23.6666667 44.9310345 22.2222222 60.6724138 33.7777778 39.2068966 23.6666667 39.2068966"></polygon>
                <path d="M13.5555556,10.5862069 L12.1111111,10.5862069 C10.5156218,10.5862069 9.22222222,11.8675988 9.22222222,13.4482759 L9.22222222,16.3103448 L38.1111111,16.3103448 L38.1111111,13.4482759 L16.4444444,13.4482759 C14.8489552,13.4482759 13.5555556,12.1668839 13.5555556,10.5862069 Z" id="Path" fill="#ED3F42"></path>
                <path d="M23.6666667,7.72413793 C20.4756881,7.72413793 17.8888889,5.16135409 17.8888889,2 C15.495655,2 13.5555556,3.92208788 13.5555556,6.29310345 L13.5555556,10.5862069 L33.7777778,10.5862069 L33.7777778,7.72413793 L23.6666667,7.72413793 Z" id="Path" fill="#ED3F42"></path>
                <path d="M30.8888889,56.3793103 L54,56.3793103 L54,64.9655172 C54,71.2882254 48.8264016,76.4137931 42.4444444,76.4137931 C36.0624873,76.4137931 30.8888889,71.2882254 30.8888889,64.9655172 L30.8888889,56.3793103 Z" id="Path" fill="#ED3F42"></path>
                <path d="M36.6666667,47.7931034 C38.2621559,47.7931034 39.5555556,49.0744954 39.5555556,50.6551724 L39.5555556,56.3793103 L33.7777778,56.3793103 L33.7777778,50.6551724 C33.7777778,49.0744954 35.0711774,47.7931034 36.6666667,47.7931034 Z" id="Path" fill="#ED3F42"></path>
                <path d="M48.2222222,47.7931034 C49.8177115,47.7931034 51.1111111,49.0744954 51.1111111,50.6551724 L51.1111111,56.3793103 L45.3333333,56.3793103 L45.3333333,50.6551724 C45.3333333,49.0744954 46.6267329,47.7931034 48.2222222,47.7931034 Z" id="Path" fill="#ED3F42"></path>
                <path d="M36.6666667,52.0862069 L36.6666667,47.7931034 C35.0711774,47.7931034 33.7777778,49.0744954 33.7777778,50.6551724 L33.7777778,56.3793103 L39.5555556,56.3793103 L39.5555556,54.9482759 C37.9600663,54.9482759 36.6666667,53.6668839 36.6666667,52.0862069 Z" id="Path" fill="#ED3F42"></path>
                <path d="M48.2222222,52.0862069 L48.2222222,47.7931034 C46.6267329,47.7931034 45.3333333,49.0744954 45.3333333,50.6551724 L45.3333333,56.3793103 L51.1111111,56.3793103 L51.1111111,54.9482759 C49.5156218,54.9482759 48.2222222,53.6668839 48.2222222,52.0862069 Z" id="Path" fill="#ED3F42"></path>
                <path d="M49.6666667,70.6896552 C41.6892203,70.6896552 35.2222222,64.2826956 35.2222222,56.3793103 L30.8888889,56.3793103 L30.8888889,64.9655172 C30.8970065,70.1399385 34.4074992,74.6657081 39.4522856,76.0055516 C44.497072,77.3453952 49.8218688,75.1661881 52.4414444,70.6896552 L49.6666667,70.6896552 Z" id="Path" fill="#ED3F42"></path>
                <polygon id="Path" fill="#ED3F42" points="25.1111111 24.8965517 13.5555556 44.9310345 23.6666667 44.9310345 22.2222222 60.6724138 28 42.0689655 19.3333333 42.0689655"></polygon>
                <path d="M52.1052632,54.4666667 L52.1052632,50.1666667 C52.1052632,47.7918422 50.1612364,45.8666667 47.7631579,45.8666667 C45.3650794,45.8666667 43.4210526,47.7918422 43.4210526,50.1666667 L43.4210526,54.4666667 L40.5263158,54.4666667 L40.5263158,50.1666667 C40.5263158,47.7918422 38.582289,45.8666667 36.1842105,45.8666667 C33.786132,45.8666667 31.8421053,47.7918422 31.8421053,50.1666667 L31.8421053,54.4666667 L30.3947368,54.4666667 C29.5953773,54.4666667 28.9473684,55.1083919 28.9473684,55.9 L28.9473684,64.5 C28.9541017,69.3942057 31.757013,73.8631333 36.1842105,76.0383333 L36.1842105,83.1333333 L7.23684211,83.1333333 C4.83876359,83.1333333 2.89473684,81.2081578 2.89473684,78.8333333 L2.89473684,68.8 L24.9844737,68.8 C25.7838332,68.8 26.4318421,68.1582748 26.4318421,67.3666667 C26.4318421,66.5750585 25.7838332,65.9333333 24.9844737,65.9333333 L2.89473684,65.9333333 L2.89473684,51.6 L16.8415789,51.6 C17.6409385,51.6 18.2889474,50.9582748 18.2889474,50.1666667 C18.2889474,49.3750585 17.6409385,48.7333333 16.8415789,48.7333333 L2.89473684,48.7333333 L2.89473684,34.4 L12.4053947,34.4 C13.2047542,34.4 13.8527632,33.7582748 13.8527632,32.9666667 C13.8527632,32.1750585 13.2047542,31.5333333 12.4053947,31.5333333 L2.89473684,31.5333333 L2.89473684,21.5 C2.89473684,19.1251756 4.83876359,17.2 7.23684211,17.2 L39.0789474,17.2 C41.4770259,17.2 43.4210526,19.1251756 43.4210526,21.5 L43.4210526,31.5333333 L29.5263158,31.5333333 C28.7269563,31.5333333 28.0789474,32.1750585 28.0789474,32.9666667 C28.0789474,33.7582748 28.7269563,34.4 29.5263158,34.4 L43.4210526,34.4 L43.4210526,53 C43.4210526,53.7916081 44.0690615,54.4333333 44.8684211,54.4333333 C45.6677806,54.4333333 46.3157895,53.7916081 46.3157895,53 L46.3157895,21.5 C46.3110043,17.5439238 43.0737611,14.3380721 39.0789474,14.3333333 L39.0789474,12.9 C39.0789474,10.5251756 37.1349206,8.6 34.7368421,8.6 L34.7368421,5.73333333 C34.7368421,2.56690077 32.1448064,0 28.9473684,0 L17.3684211,0 C14.170983,0 11.5789474,2.56690077 11.5789474,5.73333333 L11.5789474,8.6 L10.1315789,8.6 C9.33221944,8.6 8.68421053,9.24172519 8.68421053,10.0333333 C8.68421053,10.8249415 9.33221944,11.4666667 10.1315789,11.4666667 L34.7368421,11.4666667 C35.5362016,11.4666667 36.1842105,12.1083919 36.1842105,12.9 L36.1842105,14.3333333 L7.23684211,14.3333333 C3.24202833,14.3380721 0.00478516838,17.5439238 0,21.5 L0,78.8333333 C0.00478516838,82.7894095 3.24202833,85.9952612 7.23684211,86 L37.6315789,86 C38.4309385,86 39.0789474,85.3582748 39.0789474,84.5666667 L39.0789474,77.0674667 C40.9828061,77.5108283 42.9645623,77.5108283 44.8684211,77.0674667 L44.8684211,84.5666667 C44.8684211,85.3582748 45.51643,86 46.3157895,86 C47.115149,86 47.7631579,85.3582748 47.7631579,84.5666667 L47.7631579,76.0383333 C52.1903554,73.8631333 54.9932667,69.3942057 55,64.5 L55,55.9 C55,55.1083919 54.3519911,54.4666667 53.5526316,54.4666667 L52.1052632,54.4666667 Z M14.4736842,8.6 L14.4736842,5.73333333 C14.4736842,4.15011705 15.769702,2.86666667 17.3684211,2.86666667 L28.9473684,2.86666667 C30.5460874,2.86666667 31.8421053,4.15011705 31.8421053,5.73333333 L31.8421053,8.6 L14.4736842,8.6 Z M46.3157895,50.1666667 C46.3157895,49.3750585 46.9637984,48.7333333 47.7631579,48.7333333 C48.5625174,48.7333333 49.2105263,49.3750585 49.2105263,50.1666667 L49.2105263,54.4666667 L46.3157895,54.4666667 L46.3157895,50.1666667 Z M34.7368421,50.1666667 C34.7368421,49.3750585 35.384851,48.7333333 36.1842105,48.7333333 C36.98357,48.7333333 37.6315789,49.3750585 37.6315789,50.1666667 L37.6315789,54.4666667 L34.7368421,54.4666667 L34.7368421,50.1666667 Z M52.1052632,64.5 C52.1052632,70.041257 47.5692008,74.5333333 41.9736842,74.5333333 C36.3781677,74.5333333 31.8421053,70.041257 31.8421053,64.5 L31.8421053,57.3333333 L52.1052632,57.3333333 L52.1052632,64.5 Z" id="Shape" fill="#131313"></path>
                <path d="M21.2965789,61.5731333 C21.4309373,61.6127321 21.5703444,61.6333333 21.7105263,61.6333333 C22.2447451,61.6333333 22.7354882,61.3417825 22.9871053,60.8751 L34.5660526,39.3751 C34.8055527,38.9308913 34.792099,38.3948033 34.5306124,37.9629248 C34.2691258,37.5310463 33.7979665,37.2667337 33.2894737,37.2666667 L28.9473684,37.2666667 C28.1480089,37.2666667 27.5,37.9083919 27.5,38.7 C27.5,39.4916081 28.1480089,40.1333333 28.9473684,40.1333333 L30.8767105,40.1333333 L23.7990789,53.2755667 L24.6052632,44.5637667 C24.6423782,44.1615786 24.506436,43.7625476 24.2308754,43.4648262 C23.9553148,43.1671049 23.5657098,42.998324 23.1578947,43 L15.5201316,43 L22.4892105,30.9241667 L21.7177632,38.5566667 C21.6378273,39.3443167 22.2177952,40.0470058 23.0131579,40.1261666 C23.8085206,40.2053274 24.5180903,39.6309834 24.5980263,38.8433333 L26.0453947,24.51 C26.1167424,23.8357097 25.7012637,23.2041415 25.0496054,22.9963028 C24.3979471,22.7884641 23.6883722,23.0612098 23.3489474,23.65 L11.77,43.7166667 C11.5111958,44.1605796 11.5114677,44.7075669 11.7707131,45.1512273 C12.0299584,45.5948877 12.5087104,45.8676794 13.0263158,45.8666667 L21.5730263,45.8666667 L20.2631579,60.0695667 C20.2012936,60.7507274 20.6339965,61.3802846 21.2965789,61.5731333 L21.2965789,61.5731333 Z" id="Path" fill="#131313"></path>
                <path d="M46.3157895,60.2 L37.6315789,60.2 C36.8322194,60.2 36.1842105,60.8417252 36.1842105,61.6333333 C36.1842105,62.4249415 36.8322194,63.0666667 37.6315789,63.0666667 L46.3157895,63.0666667 C47.115149,63.0666667 47.7631579,62.4249415 47.7631579,61.6333333 C47.7631579,60.8417252 47.115149,60.2 46.3157895,60.2 Z" id="Path" fill="#131313"></path>
                <path d="M44.8684211,65.9333333 L39.0789474,65.9333333 C38.2795879,65.9333333 37.6315789,66.5750585 37.6315789,67.3666667 C37.6315789,68.1582748 38.2795879,68.8 39.0789474,68.8 L44.8684211,68.8 C45.6677806,68.8 46.3157895,68.1582748 46.3157895,67.3666667 C46.3157895,66.5750585 45.6677806,65.9333333 44.8684211,65.9333333 Z" id="Path" fill="#131313"></path>
            </g>
        </g>
    </g>
</svg>