<?xml version="1.0" encoding="UTF-8"?>
<svg width="83px" height="92px" viewBox="0 0 83 92" version="1.1" xmlns="http://www.w3.org/2000/svg" xmlns:xlink="http://www.w3.org/1999/xlink">
    <!-- Generator: Sketch 61.2 (89653) - https://sketch.com -->
    <title>Group 6</title>
    <desc>Created with Sketch.</desc>
    <g id="Page-1" stroke="none" stroke-width="1" fill="none" fill-rule="evenodd">
        <g id="ICONS" transform="translate(-31.000000, -194.000000)" fill-rule="nonzero">
            <g id="Group-6" transform="translate(31.000000, 194.000000)">
                <path d="M81.883112,46.185826 C81.853155,42.3335028 79.7899349,38.987746 76.728693,37.0921842 C77.615057,35.5092998 78.1548276,33.7106824 78.1397583,31.7717935 C78.1021759,26.9373888 74.8831605,22.5136891 70.4740353,21.0185421 C70.468407,20.9652859 72.0561278,16.1958718 68.0676715,12.2865013 C66.6863816,10.9359586 64.8708061,10.0201314 62.8517045,9.76486246 C61.3480449,5.52656678 57.2624552,1.96363269 52.4894887,2 C46.4728529,2.04649582 41.6383384,7.4744822 41.6848171,13.4570558 C41.6383384,7.4744822 36.7199443,2.12159618 30.7033085,2.16781178 C25.930342,2.20445931 21.9004905,5.82985667 20.4630994,10.0907186 C18.4481736,10.3770387 16.6471227,11.3206674 15.2870751,12.692332 C11.420807,16.6007999 13.0165163,21.4420648 13.0166979,21.4602983 C8.63135672,23.0231439 5.48151473,27.4957671 5.51909714,32.3301718 C5.53416642,34.2690608 6.10189689,36.0591933 7.01277113,37.6281768 C3.98130466,39.5704958 1.9703732,42.9476649 2,46.7999881 C2.02120931,49.4913248 3.07642182,52.5729667 4.88745841,54.5407404 C3.16302477,56.4731302 2.09510324,58.9962133 2.11689014,61.7834113 C2.14285287,65.1320566 3.72730564,68.0770375 6.14456291,70.0462555 C5.95301969,70.8654992 5.82520318,71.7078508 5.83210236,72.5870304 C5.8785811,78.569604 10.7969752,83.92249 16.813611,83.8762744 C17.2257466,83.8730249 17.6173663,83.794314 18.0164298,83.7461125 C20.0689379,88.055898 24.4677143,91.0389707 29.5783779,91 C36.5972114,90.9456368 42.2387492,84.7027394 42.1846451,77.7236419 C42.2389308,84.7027394 47.9768757,90.8582604 54.9957092,90.8042821 C60.1063728,90.7649266 64.4583073,87.7148774 66.4436392,83.3738603 C66.8434289,83.4159237 67.2361379,83.4886772 67.6482735,83.4856082 C73.6649093,83.4393926 78.4994238,78.0114062 78.4529451,72.0288326 C78.4460459,71.149653 78.3051572,70.3094678 78.100905,69.493293 C80.487479,67.487247 82.0258162,64.5182556 82,61.1696103 C81.9780666,58.3822318 80.8709286,55.875938 79.1167195,53.9704471 C80.8983438,51.9730665 81.9041726,48.8744548 81.883112,46.185826 Z" id="Path" fill="#ED3F42"></path>
                <path d="M51,19 C52.104,19 53,18.104 53,17 C53,15.896 52.104,15 51,15 C49.896,15 49,15.896 49,17 C49,18.104 49.896,19 51,19 Z" id="Path" fill="#131313"></path>
                <path d="M32,19 C33.104,19 34,18.104 34,17 C34,15.896 33.104,15 32,15 C30.896,15 30,15.896 30,17 C30,18.104 30.896,19 32,19 Z" id="Path" fill="#131313"></path>
                <path d="M0,60.9140625 C0,64.259125 1.36192174,67.4457031 3.77090652,69.8118281 C2.53240217,77.2674219 8.50298913,84.8125 16.2391304,84.8125 C16.2950652,84.8125 16.3500978,84.8116016 16.4040478,84.8099844 C18.9689283,89.2162812 23.7298804,92 28.8695652,92 C34.226313,92 39.012887,88.7979687 41.5,84.1846719 C43.987113,88.7979687 48.773687,92 54.1304348,92 C59.2701196,92 64.0310717,89.2162812 66.5959522,84.8099844 C66.6500826,84.8116016 66.7049348,84.8125 66.7608696,84.8125 C73.607287,84.8125 79.3913043,78.8055469 79.3913043,71.6953125 C79.3913043,71.0899453 79.3378957,70.4673281 79.2290935,69.8118281 C81.6380783,67.4457031 83,64.2593047 83,60.9140625 C83,58.3344687 82.1835326,55.8236953 80.6765413,53.7053594 C82.225213,51.390625 83,48.5025078 83,46 C83,42.2272812 81.3170848,38.7221172 78.4292261,36.3452109 C79.0683261,34.8243359 79.3913043,33.2425469 79.3913043,31.625 C79.3913043,26.6198047 76.4581565,21.9572734 72.0972283,19.78 C72.7588826,14.3149844 69.1830261,9.30565625 63.883837,8.02789844 C61.8097391,3.2530625 57.1933152,0 52.326087,0 C47.7953696,0 43.7317978,2.63170313 41.5,6.471625 C39.2680217,2.63170313 35.20445,0 30.673913,0 C25.8063239,0 21.1899,3.2530625 19.116163,8.02807813 C13.7852174,9.31392188 10.2429217,14.3482266 10.9027717,19.78 C6.54202391,21.9570937 3.60869565,26.6198047 3.60869565,31.625 C3.60869565,33.2425469 3.93167391,34.8243359 4.57077391,36.3452109 C1.68291522,38.7222969 0,42.2272812 0,46 C0,48.515625 0.781282609,51.3999688 2.3234587,53.7051797 C0.816467391,55.8236953 0,58.3344687 0,60.9140625 Z M52.326087,3.59375 C55.4396696,3.59375 58.0855652,5.50275 59.6768196,7.85485938 C57.420663,8.2009375 55.3388065,9.24528125 53.6925196,10.8827734 C52.9873804,11.5840938 52.9866587,12.7216953 53.6908957,13.4239141 C54.3951326,14.1261328 55.5378261,14.1266719 56.2426043,13.4253516 C57.6075935,12.0679922 59.4204217,11.3203125 61.3478261,11.3203125 C65.3161283,11.3203125 68.5652174,14.5164141 68.5652174,18.5078125 C68.5652174,18.55525 68.5616087,18.6014297 68.5607065,18.6486875 C67.965813,18.5565078 67.3649652,18.5078125 66.7608696,18.5078125 C59.9144522,18.5078125 54.1304348,24.5147656 54.1304348,31.625 C54.1304348,32.6174141 54.9384217,33.421875 55.9347826,33.421875 C56.9311435,33.421875 57.7391304,32.6174141 57.7391304,31.625 C57.7391304,26.5518828 61.9548087,22.1015625 66.7608696,22.1015625 C71.8097957,22.1015625 75.7826087,26.7728984 75.7826087,31.625 C75.7826087,33.1349141 75.3759087,34.6148203 74.5738761,36.0233906 C74.0993326,36.8569609 74.365113,37.9147813 75.1779717,38.4276094 C77.8162891,40.0920547 79.3913043,42.9228516 79.3913043,46 C79.3913043,51.0907266 75.25195,55.5234375 70.3695652,55.5234375 C69.3732043,55.5234375 68.5652174,56.3278984 68.5652174,57.3203125 C68.5652174,58.3127266 69.3732043,59.1171875 70.3695652,59.1171875 C73.211413,59.1171875 75.9033196,58.0564922 78.0674543,56.2908828 C78.9284891,57.6893906 79.3913043,59.2842969 79.3913043,60.9140625 C79.3913043,63.5502578 78.1924957,66.0556406 76.1025196,67.7876484 C75.5742065,68.2253672 75.3416261,68.9238125 75.5023935,69.5890156 C75.6936543,70.3801797 75.7826087,71.0495156 75.7826087,71.6951328 C75.7826087,77.2726328 70.7169022,81.7802734 66.149737,81.1585547 C66.0228913,81.1413047 65.8958652,81.1242344 65.7682978,81.1098594 C64.9947739,81.0227109 64.2548109,81.4370703 63.9280435,82.13875 C62.1536478,85.9461484 58.3076804,88.40625 54.1304348,88.40625 C48.2621543,88.40625 43.3043478,83.2220859 43.3043478,77.0859375 C43.3043478,71.1411562 48.1609304,66.3046875 54.1304348,66.3046875 C55.1267957,66.3046875 55.9347826,65.5002266 55.9347826,64.5078125 C55.9347826,63.5153984 55.1267957,62.7109375 54.1304348,62.7109375 C49.8221935,62.7109375 45.9515065,64.6026875 43.3043478,67.5928672 L43.3043478,33.421875 C43.3043478,31.4402813 44.9232087,29.828125 46.9130435,29.828125 C47.9094043,29.828125 48.7173913,29.0236641 48.7173913,28.03125 C48.7173913,27.0388359 47.9094043,26.234375 46.9130435,26.234375 C45.598937,26.234375 44.3667478,26.5876406 43.3043478,27.2012734 L43.3043478,13.1171875 C43.3043478,8.04389062 47.5200261,3.59375 52.326087,3.59375 Z M7.8222087,38.4276094 C8.63506739,37.9147812 8.90084783,36.8569609 8.42612391,36.0233906 C7.6240913,34.6148203 7.2173913,33.1349141 7.2173913,31.625 C7.2173913,26.7752344 11.1873174,22.1015625 16.2391304,22.1015625 C21.0451913,22.1015625 25.2608696,26.5518828 25.2608696,31.625 C25.2608696,32.6174141 26.0686761,33.421875 27.0652174,33.421875 C28.0617587,33.421875 28.8695652,32.6174141 28.8695652,31.625 C28.8695652,24.5147656 23.0855478,18.5078125 16.2391304,18.5078125 C15.6350348,18.5078125 15.034187,18.5565078 14.4392935,18.6486875 C14.4383913,18.6014297 14.4347826,18.5554297 14.4347826,18.5078125 C14.4347826,14.4977266 17.7037196,11.3203125 21.6521739,11.3203125 C23.5795783,11.3203125 25.392587,12.0679922 26.7570348,13.4253516 C27.4619935,14.1266719 28.6043261,14.1259531 29.3087435,13.4240938 C30.0129804,12.721875 30.0124391,11.5842734 29.3074804,10.8829531 C27.6613739,9.24546094 25.579337,8.20111719 23.323,7.85503906 C24.9142543,5.50275 27.5603304,3.59375 30.673913,3.59375 C35.4799739,3.59375 39.6956522,8.04389062 39.6956522,13.1171875 L39.6956522,27.2012734 C38.6332522,26.5876406 37.401063,26.234375 36.0869565,26.234375 C35.0904152,26.234375 34.2826087,27.0388359 34.2826087,28.03125 C34.2826087,29.0236641 35.0904152,29.828125 36.0869565,29.828125 C38.0767913,29.828125 39.6956522,31.4402813 39.6956522,33.421875 L39.6956522,67.5928672 C37.0484935,64.6026875 33.1778065,62.7109375 28.8695652,62.7109375 C27.8730239,62.7109375 27.0652174,63.5153984 27.0652174,64.5078125 C27.0652174,65.5002266 27.8730239,66.3046875 28.8695652,66.3046875 C34.8390696,66.3046875 39.6956522,71.1411562 39.6956522,77.0859375 C39.6956522,83.2220859 34.7378457,88.40625 28.8695652,88.40625 C24.6921391,88.40625 20.8465326,85.9461484 19.072137,82.13875 C18.7450087,81.4370703 18.0041435,81.02325 17.2317022,81.1098594 C17.1041348,81.1244141 16.9772891,81.1413047 16.8504435,81.1585547 C11.7152696,81.8578984 5.93233478,76.0671094 7.49778696,69.5890156 C7.65855435,68.9236328 7.42579348,68.2253672 6.89766087,67.7876484 C4.80750435,66.0556406 3.60869565,63.5502578 3.60869565,60.9140625 C3.60869565,59.2841172 4.07151087,57.6890313 4.93272609,56.2903438 C7.09686087,58.0566719 9.78876739,59.1171875 12.6304348,59.1171875 C13.6269761,59.1171875 14.4347826,58.3127266 14.4347826,57.3203125 C14.4347826,56.3278984 13.6269761,55.5234375 12.6304348,55.5234375 C7.73361522,55.5234375 3.60869565,51.0725781 3.60869565,46 C3.60869565,42.9228516 5.18371087,40.0920547 7.8222087,38.4276094 Z" id="Shape" fill="#131313"></path>
                <path d="M24.7433507,44.4937833 C24.0375162,46.71725 21.9541128,48.3333333 19.5,48.3333333 C18.4874572,48.3333333 17.6666726,49.1541167 17.6666726,50.1666667 C17.6666726,51.1792167 18.4874572,52 19.5,52 C23.9654661,52 27.6931888,48.7898333 28.5020567,44.5563 C31.0516775,44.2228167 33.4513314,43.1318 35.3889845,41.3983833 C36.1435857,40.72335 36.2081192,39.5643167 35.5330848,38.8097167 C34.8580503,38.0551167 33.6991985,37.9905833 32.9444139,38.6656167 C27.0652711,43.9245333 17.6666726,39.7216167 17.6666726,31.8333333 C17.6666726,30.8207833 16.8458879,30 15.8333363,30 C14.8207847,30 14,30.8207833 14,31.8333333 C14,38.19775 18.6579575,43.4924167 24.7433507,44.4937833 Z" id="Path" fill="#131313"></path>
                <path d="M16.75,70 C15.783475,70 15,70.8090964 15,71.8072289 C15,72.8053614 15.783475,73.6144578 16.75,73.6144578 C21.4113,73.6144578 25.5,78.0904217 25.5,83.1927711 C25.5,84.1909036 26.283475,85 27.25,85 C28.216525,85 29,84.1909036 29,83.1927711 C29,76.0415663 23.3902,70 16.75,70 Z" id="Path" fill="#131313"></path>
                <path d="M30.2143236,56 C24.1633806,56 18.9681337,59.3767961 16.2324775,64.2867321 C15.7462378,65.1597752 16.0474814,66.268658 16.9053203,66.7634127 C17.7633379,67.2581674 18.8529576,66.9518301 19.3393758,66.078787 C21.4705806,62.2530233 25.5144234,59.6338941 30.2143236,59.6338941 C31.2005527,59.6338941 32,58.8204469 32,57.8169471 C32,56.8134472 31.2005527,56 30.2143236,56 Z" id="Path" fill="#131313"></path>
                <path d="M47.4669871,38.8097167 C46.7917716,39.5643167 46.8564881,40.72335 47.6110868,41.3983833 C49.5487335,43.1318 51.9485627,44.2228167 54.4979916,44.5563 C55.3068569,48.7898333 59.0345672,52 63.5,52 C64.5123744,52 65.3333396,51.1792167 65.3333396,50.1666667 C65.3333396,49.1541167 64.5123744,48.3333333 63.5,48.3333333 C61.0459137,48.3333333 58.9625173,46.71725 58.2566852,44.4937833 C64.342058,43.4924167 69,38.19775 69,31.8333333 C69,30.8207833 68.1790347,30 67.1666698,30 C66.1543049,30 65.3333396,30.8207833 65.3333396,31.8333333 C65.3333396,36.8878333 61.2211801,41 56.1666888,41 C53.9087593,41 51.7386464,40.1709667 50.0556493,38.6656167 C49.3012339,37.9905833 48.1420192,38.0549333 47.4669871,38.8097167 Z" id="Path" fill="#131313"></path>
                <path d="M66.25,70 C59.6098,70 54,76.0415663 54,83.1927711 C54,84.1909036 54.78365,85 55.75,85 C56.71635,85 57.5,84.1909036 57.5,83.1927711 C57.5,78.0904217 61.5887,73.6144578 66.25,73.6144578 C67.21635,73.6144578 68,72.8053614 68,71.8072289 C68,70.8090964 67.21635,70 66.25,70 Z" id="Path" fill="#131313"></path>
                <path d="M63.6603695,66.0786706 C64.1473274,66.9527938 65.2378488,67.257674 66.0944447,66.7634701 C66.9524691,66.2687211 67.2537152,65.1598511 66.7676501,64.2868181 C64.0387574,59.3885671 58.8506112,56 52.7856908,56 C51.7996324,56 51,56.8134378 51,57.8169261 C51,58.8204143 51.7996324,59.6338522 52.7856908,59.6338522 C57.4822363,59.6338522 61.5291475,62.2522243 63.6603695,66.0786706 Z" id="Path" fill="#131313"></path>
            </g>
        </g>
    </g>
</svg>