<?xml version="1.0" encoding="UTF-8"?>
<svg width="438px" height="78px" viewBox="0 0 438 78" version="1.1" xmlns="http://www.w3.org/2000/svg" xmlns:xlink="http://www.w3.org/1999/xlink">
    <!-- Generator: Sketch 61.2 (89653) - https://sketch.com -->
    <title>Combined Shape</title>
    <desc>Created with Sketch.</desc>
    <g id="Page-1" stroke="none" stroke-width="1" fill="none" fill-rule="evenodd">
        <g id="Styleguide" transform="translate(-801.000000, -144.000000)" fill="#927D7D" fill-rule="nonzero">
            <path d="M931.3,184.3 L931.3,201.2 C931.3,209.4 929.4,215.6 922,221.4 L913.9,214.6 C918.1,210.6 919.5,207.6 919.6,202.7 L913.1,202.7 L913.1,184.3 L931.3,184.3 Z M1038.8,192.3 C1041.2,192.3 1042.4,194.5 1042.4,197.2 C1042.5,201.2 1040.3,202.9 1037.4,202.9 C1037.1,202.9 1036.7,202.9 1036.3,202.8 L1036.3,206.1 L1033.7,206.1 L1033.7,192.6 L1035.8,192.6 L1036,193.6 C1036.8,192.9 1037.8,192.3 1038.8,192.3 Z M1049.9,192.3 C1052.3,192.3 1053.5,194.5 1053.5,197.2 C1053.5,201.2 1051.4,202.9 1048.5,202.9 C1048.2,202.9 1047.8,202.9 1047.4,202.8 L1047.4,206.1 L1044.8,206.1 L1044.8,192.6 L1046.9,192.6 L1047.1,193.6 C1047.9,192.9 1048.9,192.3 1049.9,192.3 Z M1086.1,188.5 L1086.1,202.8 L1083.9,202.8 L1083.9,202.7 L1083.7,201.7 C1082.9,202.4 1081.9,203 1080.9,203 C1078.5,203 1077.4,200.8 1077.4,198.1 C1077.4,194 1079.6,192.4 1082.4,192.4 C1082.8,192.4 1083.3,192.4 1083.5,192.5 L1083.5,188.5 L1086.1,188.5 Z M1162.9,192.3 C1163.8,192.3 1164.7,192.5 1165.7,193 L1165.4,194.3 C1164.6,194.1 1164,194 1163.4,194 C1162.4,194 1161.9,194.5 1161.9,195 C1161.9,195.6 1162.2,195.9 1163.7,196.4 C1165.7,197.1 1166.4,198 1166.4,199.5 C1166.4,201.5 1164.9,202.9 1162.3,202.9 C1161.2,202.9 1160.1,202.6 1159.2,202.1 L1159.4,200.7 C1160.5,201 1161.2,201 1161.9,201 C1163.2,201 1163.7,200.5 1163.7,199.9 C1163.7,199.2 1163.4,198.9 1161.9,198.4 C1160,197.7 1159.2,196.9 1159.2,195.4 C1159.2,193.6 1160.7,192.3 1162.9,192.3 Z M1098,188.9 C1099.3,188.9 1100.5,189.2 1101.6,190 L1101,191.4 C1100.1,191.1 1099.2,190.9 1098.5,190.9 C1097.1,190.9 1096.5,191.5 1096.5,192.5 C1096.5,195.2 1102.3,194.7 1102.3,198.9 C1102.3,201.1 1100.6,202.9 1097.6,202.9 C1096,202.9 1094.7,202.4 1093.5,201.6 L1094.1,200.2 C1095.2,200.6 1096.3,200.9 1097,200.9 C1098.4,200.9 1099.3,200.3 1099.3,199.1 C1099.3,196.4 1093.6,197 1093.6,192.7 C1093.6,190.4 1095.4,188.9 1098,188.9 Z M1108.2,192.4 C1109.5,192.4 1110.5,192.9 1111.2,193.7 L1110.3,195 C1109.8,194.6 1109.3,194.3 1108.6,194.3 C1107.4,194.3 1106.7,195.4 1106.7,197.5 C1106.7,200 1107.4,200.9 1108.5,200.9 C1109.3,200.9 1110,200.6 1110.6,200.1 L1111.4,201.4 C1110.7,202.2 1109.6,202.9 1108,202.9 C1105.3,202.9 1104,201.2 1104,197.8 C1104,194.6 1105.6,192.4 1108.2,192.4 Z M1144.5,192.4 C1145.8,192.4 1146.8,192.9 1147.5,193.7 L1146.6,195 C1146.1,194.6 1145.6,194.3 1144.9,194.3 C1143.7,194.3 1143,195.4 1143,197.5 C1143,200 1143.7,200.9 1144.8,200.9 C1145.6,200.9 1146.3,200.6 1146.9,200.1 L1147.7,201.4 C1146.9,202.2 1145.8,202.9 1144.3,202.9 C1141.6,202.9 1140.3,201.2 1140.3,197.8 C1140.3,194.6 1141.9,192.4 1144.5,192.4 Z M1123,192.3 C1125.6,192.3 1127.3,193.8 1127,198.1 L1121,198.1 L1121,198.2 C1121,200.1 1121.8,200.8 1123.3,200.8 C1124.2,200.8 1125.4,200.6 1126.6,200.2 L1127,201.7 C1125.8,202.3 1124.3,202.8 1122.8,202.8 C1120.2,202.8 1118.4,201.5 1118.4,197.8 C1118.4,194.2 1120.2,192.3 1123,192.3 Z M1071.4,192.3 C1074,192.3 1075.7,193.8 1075.4,198.1 L1069.4,198.1 L1069.4,198.2 C1069.4,200.1 1070.2,200.8 1071.7,200.8 C1072.6,200.8 1073.8,200.6 1075,200.2 L1075.4,201.7 C1074.2,202.3 1072.7,202.8 1071.2,202.8 C1068.6,202.8 1066.8,201.5 1066.8,197.8 C1066.8,194.2 1068.6,192.3 1071.4,192.3 Z M1153.4,192.3 C1156,192.3 1157.7,193.8 1157.4,198.1 L1151.4,198.1 L1151.4,198.2 C1151.4,200.1 1152.2,200.8 1153.7,200.8 C1154.6,200.8 1155.8,200.6 1157,200.2 L1157.4,201.7 C1156.2,202.3 1154.7,202.8 1153.2,202.8 C1150.6,202.8 1148.8,201.5 1148.8,197.8 C1148.8,194.2 1150.6,192.3 1153.4,192.3 Z M1058.5,188.4 L1058.5,199.8 C1058.5,200.9 1058.6,201.1 1059.2,201.1 L1059.7,201.1 L1059.7,201.1 L1059.8,202.6 C1059.3,202.7 1058.7,202.8 1057.9,202.8 C1056.6,202.8 1055.9,202.4 1055.9,200.8 L1055.9,188.4 L1058.5,188.4 Z M1134.9,192.4 C1136.9,192.4 1138,193.7 1138,197 C1138,198.2 1137.9,200.5 1137.9,202.7 L1135.3,202.7 C1135.3,200.7 1135.4,198.6 1135.4,197.4 C1135.4,195 1134.9,194.5 1134,194.5 C1133.5,194.5 1132.8,194.8 1132.1,195.3 L1132.1,202.7 L1129.5,202.7 L1129.5,192.6 L1131.6,192.6 L1131.8,193.7 C1132.7,192.9 1133.7,192.4 1134.9,192.4 Z M1028.1,189.1 C1029.7,193.8 1030.9,198.1 1031.9,202.7 L1029,202.7 C1028.8,201.9 1028.6,200.8 1028.4,200 L1023.9,200 C1023.7,200.8 1023.5,201.8 1023.3,202.7 L1020.7,202.7 C1021.7,198.2 1023,193.5 1024.5,189.1 L1028.1,189.1 Z M1116,192.6 L1116,202.7 L1113.4,202.7 L1113.4,192.6 L1116,192.6 Z M1064.4,192.6 L1064.4,202.7 L1061.8,202.7 L1061.8,192.6 L1064.4,192.6 Z M844.6,144.7 L844.6,158.5 L818.5,158.5 L818.5,168.7 L842.6,168.7 L842.6,182.5 L818.5,182.5 L818.5,202.7 L801,202.7 L801,144.7 L844.6,144.7 Z M966.3,144.7 C977.7,144.7 982.6,145.9 986.1,148.2 C991.2,151.6 993.7,157.1 993.7,164.3 C993.7,171 991.1,176.8 986.4,180.2 C982.4,183.1 977.1,184.5 968.1,184.5 L959.3,184.5 L959.3,202.7 L941.5,202.7 L941.5,144.7 L966.3,144.7 Z M868.3,144.7 L868.3,165.1 L885.2,165.1 L885.2,144.7 L903.2,144.7 L903.2,202.7 L885.3,202.7 L885.3,180 L868.3,180 L868.3,202.7 L850.4,202.7 L850.4,144.7 L868.3,144.7 Z M1049.2,194.3 C1048.7,194.3 1048.1,194.6 1047.4,195.1 L1047.4,200.7 C1047.7,200.8 1048.2,200.9 1048.6,200.9 C1049.9,200.9 1050.8,199.8 1050.8,197.4 C1050.9,195.5 1050.3,194.3 1049.2,194.3 Z M1038.2,194.3 C1037.7,194.3 1037.1,194.6 1036.4,195.1 L1036.4,200.7 C1036.7,200.8 1037.2,200.9 1037.6,200.9 C1038.9,200.9 1039.8,199.8 1039.8,197.4 C1039.8,195.5 1039.2,194.3 1038.2,194.3 Z M1082.2,194.2 C1080.9,194.2 1080,195.3 1080,197.7 C1080,199.8 1080.6,200.9 1081.7,200.9 C1082.2,200.9 1082.8,200.6 1083.5,200.1 L1083.5,194.4 L1083.4,194.4 C1083,194.3 1082.6,194.2 1082.2,194.2 Z M1026.1,191.5 C1025.5,193.4 1024.9,195.9 1024.3,198 L1027.9,198 C1027.4,195.9 1026.8,193.6 1026.1,191.5 Z M1153.3,194.1 C1152.2,194.1 1151.6,195.1 1151.5,196.5 L1154.9,196.5 C1154.9,194.9 1154.4,194.1 1153.3,194.1 Z M1071.2,194.1 C1070.1,194.1 1069.5,195.1 1069.4,196.5 L1072.8,196.5 C1072.8,194.9 1072.3,194.1 1071.2,194.1 Z M1122.9,194.1 C1121.8,194.1 1121.2,195.1 1121.1,196.5 L1124.5,196.5 C1124.5,194.9 1124,194.1 1122.9,194.1 Z M1114.7,188.5 C1116,188.5 1116.2,188.8 1116.2,189.9 C1116.3,190.9 1116,191.3 1114.7,191.3 C1113.5,191.3 1113.1,191 1113.1,189.9 C1113.1,188.9 1113.4,188.5 1114.7,188.5 Z M1063.1,188.5 C1064.4,188.5 1064.6,188.8 1064.6,189.9 C1064.6,190.9 1064.3,191.3 1063.1,191.3 C1061.9,191.3 1061.5,191 1061.5,189.9 C1061.5,188.9 1061.8,188.5 1063.1,188.5 Z M1109.8,170.3 C1108.2,180.9 1104.9,184.1 1102.1,184.1 C1101.7,184.1 1101.1,184 1100.6,183.7 L1100.6,182.2 C1100.9,182.2 1101.4,182.3 1101.6,182.3 C1102.2,182.3 1102.7,182.2 1103.1,181.9 C1103.5,181.5 1103.7,181.2 1103.7,180.7 C1103.7,180.3 1103.6,179.7 1103.2,178.7 L1100.7,170.5 L1103.5,170.5 L1105,176 C1105.3,177 1105.5,177.9 1105.4,178.5 C1106.2,176.1 1106.9,173 1107.1,170.3 L1109.8,170.3 Z M1032.2,166.8 L1032.2,175.5 C1032.2,179.3 1030,180.7 1026.9,180.7 C1023.7,180.7 1022,179.3 1022,175.9 L1022,166.9 L1024.7,166.9 L1024.7,175.6 C1024.7,177.9 1025.4,178.7 1027.1,178.7 C1028.6,178.7 1029.5,178 1029.5,175.7 L1029.5,166.8 L1032.2,166.8 Z M1120.4,170.1 C1123.3,170.1 1124.9,171.6 1124.9,175.2 C1124.9,179 1123,180.7 1120,180.7 C1117.1,180.7 1115.5,179.2 1115.5,175.6 C1115.5,171.9 1117.4,170.1 1120.4,170.1 Z M1083.3,170.1 C1084.2,170.1 1085.1,170.3 1086.1,170.8 L1085.8,172.1 C1085,171.9 1084.4,171.8 1083.8,171.8 C1082.8,171.8 1082.3,172.3 1082.3,172.8 C1082.3,173.4 1082.6,173.7 1084.1,174.2 C1086.1,174.9 1086.8,175.8 1086.8,177.3 C1086.8,179.3 1085.3,180.7 1082.7,180.7 C1081.6,180.7 1080.5,180.4 1079.6,179.9 L1079.8,178.5 C1080.9,178.8 1081.6,178.8 1082.3,178.8 C1083.6,178.8 1084.1,178.3 1084.1,177.7 C1084.1,177 1083.8,176.7 1082.3,176.2 C1080.4,175.5 1079.6,174.7 1079.6,173.2 C1079.6,171.4 1081.1,170.1 1083.3,170.1 Z M1097.2,167.6 L1097.2,170.5 L1099.4,170.5 L1099.4,172.3 L1097.2,172.3 L1097.2,177.5 C1097.2,178.5 1097.4,178.9 1098.1,178.9 C1098.4,178.9 1098.8,178.9 1099.5,178.7 L1099.7,180.2 C1098.8,180.5 1098,180.7 1097.2,180.7 C1095.3,180.7 1094.6,180 1094.6,178.1 L1094.6,172.3 L1093.3,172.3 L1093.3,170.5 L1094.7,170.5 C1094.9,169.6 1095.1,168.7 1095.3,167.6 L1097.2,167.6 Z M1130.2,166.1 C1131.2,166.1 1132,166.4 1132.6,166.7 L1132.3,168.1 C1131.9,167.9 1131.5,167.9 1131.1,167.9 C1130.3,167.9 1130,168.3 1130,169.2 L1130,170.5 L1131.8,170.5 L1131.8,172.3 L1130,172.3 L1130,180.6 L1127.4,180.6 L1127.4,172.3 L1126.1,172.3 L1126.1,170.5 L1127.4,170.5 L1127.4,169.3 C1127.4,167.3 1128.2,166.1 1130.2,166.1 Z M1066.2,170.1 C1068.8,170.1 1070.5,171.6 1070.2,175.9 L1064.2,175.9 L1064.2,176 C1064.2,177.9 1065,178.6 1066.5,178.6 C1067.4,178.6 1068.6,178.4 1069.8,178 L1070.2,179.5 C1069,180.1 1067.5,180.6 1066,180.6 C1063.4,180.6 1061.6,179.3 1061.6,175.6 C1061.6,172 1063.4,170.1 1066.2,170.1 Z M1049.2,170.4 L1049.2,180.5 L1046.6,180.5 L1046.6,170.4 L1049.2,170.4 Z M1053.9,170.4 L1055.5,176.1 L1055.9,178.1 C1056.7,175.4 1057.3,172.9 1057.6,170.4 L1060.3,170.4 C1059.8,173.9 1058.8,177.3 1057.4,180.5 L1054,180.5 L1051.1,170.4 L1053.9,170.4 Z M1077.4,170.2 C1077.7,170.2 1078,170.3 1078.4,170.4 L1078.2,172.7 C1077.8,172.6 1077.5,172.6 1077.3,172.6 C1076.7,172.6 1076.3,173 1075.3,174.1 L1075.3,180.5 L1072.7,180.5 L1072.7,170.4 L1074.8,170.4 L1075,172 C1076,170.6 1076.7,170.2 1077.4,170.2 Z M1040.7,170.2 C1042.7,170.2 1043.8,171.5 1043.8,174.8 C1043.8,176 1043.7,178.3 1043.7,180.5 L1041.1,180.5 C1041.1,178.5 1041.2,176.4 1041.2,175.2 C1041.2,172.8 1040.7,172.3 1039.8,172.3 C1039.3,172.3 1038.6,172.6 1037.9,173.1 L1037.9,180.5 L1035.3,180.5 L1035.3,170.4 L1037.4,170.4 L1037.6,171.5 C1038.5,170.7 1039.5,170.2 1040.7,170.2 Z M1091.5,170.4 L1091.5,180.5 L1088.9,180.5 L1088.9,170.4 L1091.5,170.4 Z M1120.2,172.1 C1119,172.1 1118.2,172.9 1118.2,175.2 C1118.2,178 1118.9,178.8 1120.2,178.8 C1121.4,178.8 1122.2,178 1122.2,175.7 C1122.2,172.8 1121.5,172.1 1120.2,172.1 Z M1066.1,171.9 C1065,171.9 1064.4,172.9 1064.3,174.3 L1067.7,174.3 C1067.7,172.7 1067.2,171.9 1066.1,171.9 Z M931.3,153.8 L931.3,172.1 L913.3,172.1 L913.3,153.8 L931.3,153.8 Z M966.4,158.6 L959.3,158.6 L959.3,171 L966.1,171 C969.6,171 972.1,170.5 973.5,169.4 C974.8,168.3 975.3,166.7 975.3,164.8 C975.3,163 974.8,161.4 973.5,160.2 C972.2,159 970.1,158.6 966.4,158.6 Z M1090.3,166.3 C1091.6,166.3 1091.8,166.6 1091.8,167.7 C1091.8,168.7 1091.5,169.1 1090.3,169.1 C1089.1,169.1 1088.7,168.8 1088.7,167.7 C1088.7,166.7 1089,166.3 1090.3,166.3 Z M1048,166.3 C1049.3,166.3 1049.5,166.6 1049.5,167.7 C1049.5,168.7 1049.2,169.1 1048,169.1 C1046.8,169.1 1046.4,168.8 1046.4,167.7 C1046.4,166.7 1046.7,166.3 1048,166.3 Z M1211.5,144 L1211.5,158.3 L1209.3,158.3 L1209.1,157.3 C1208.3,158 1207.3,158.6 1206.3,158.6 C1203.9,158.6 1202.8,156.4 1202.8,153.7 C1202.8,149.6 1205,148 1207.8,148 C1208.2,148 1208.7,148 1208.9,148.1 L1208.9,144 L1211.5,144 Z M1218.3,148 C1220.9,148 1222.1,149.2 1222.1,151.1 L1222.1,158.3 L1220.1,158.3 L1219.9,157.3 C1219,158 1218.1,158.6 1216.8,158.6 C1214.8,158.6 1213.7,157.6 1213.7,155.7 C1213.7,153.6 1215.4,152.2 1218.9,152.2 L1219.5,152.2 L1219.5,151.4 C1219.5,150.4 1218.9,149.9 1217.6,149.9 C1216.6,149.9 1215.4,150.2 1214.5,150.5 L1214.2,148.9 C1215.4,148.4 1216.7,148 1218.3,148 Z M1034.8,148 C1037.4,148 1038.6,149.2 1038.6,151.1 L1038.6,158.3 L1036.6,158.3 L1036.4,157.3 C1035.5,158 1034.6,158.6 1033.3,158.6 C1031.3,158.6 1030.2,157.6 1030.2,155.7 C1030.2,153.6 1031.9,152.2 1035.4,152.2 L1036,152.2 L1036,151.4 C1036,150.4 1035.4,149.9 1034.1,149.9 C1033.1,149.9 1031.9,150.2 1031,150.5 L1030.7,148.9 C1031.9,148.4 1033.2,148 1034.8,148 Z M1045.1,148 C1046.4,148 1047.4,148.5 1048.1,149.3 L1047.2,150.6 C1046.7,150.2 1046.2,149.9 1045.5,149.9 C1044.3,149.9 1043.6,151 1043.6,153.1 C1043.6,155.6 1044.3,156.5 1045.4,156.5 C1046.2,156.5 1046.9,156.2 1047.5,155.7 L1048.3,157 C1047.6,157.8 1046.5,158.5 1044.9,158.5 C1042.2,158.5 1040.9,156.8 1040.9,153.4 C1040.9,150.2 1042.5,148 1045.1,148 Z M1087.6,148 C1088.9,148 1089.9,148.5 1090.6,149.3 L1089.7,150.6 C1089.2,150.2 1088.7,149.9 1088,149.9 C1086.8,149.9 1086.1,151 1086.1,153.1 C1086.1,155.6 1086.8,156.5 1087.9,156.5 C1088.7,156.5 1089.4,156.2 1090,155.7 L1090.8,157 C1090,157.8 1088.9,158.5 1087.4,158.5 C1084.7,158.5 1083.4,156.8 1083.4,153.4 C1083.4,150.2 1085,148 1087.6,148 Z M1116.2,148 C1117.5,148 1118.5,148.5 1119.2,149.3 L1118.3,150.6 C1117.8,150.2 1117.3,149.9 1116.6,149.9 C1115.4,149.9 1114.7,151 1114.7,153.1 C1114.7,155.6 1115.4,156.5 1116.5,156.5 C1117.3,156.5 1118,156.2 1118.6,155.7 L1119.4,157 C1118.6,157.8 1117.5,158.5 1116,158.5 C1113.3,158.5 1112,156.8 1112,153.4 C1112,150.2 1113.6,148 1116.2,148 Z M1153.5,148 C1156.1,148 1157.8,149.5 1157.5,153.8 L1151.5,153.8 L1151.5,153.9 C1151.5,155.8 1152.3,156.5 1153.8,156.5 C1154.7,156.5 1155.9,156.3 1157.1,155.9 L1157.5,157.4 C1156.3,158 1154.8,158.5 1153.3,158.5 C1150.7,158.5 1148.9,157.2 1148.9,153.5 C1148.9,149.9 1150.7,148 1153.5,148 Z M1197.5,147.9 C1198.4,147.9 1199.3,148.1 1200.3,148.6 L1200.1,150 C1199.3,149.8 1198.7,149.7 1198.1,149.7 C1197.1,149.7 1196.6,150.2 1196.6,150.7 C1196.6,151.3 1196.9,151.6 1198.4,152.1 C1200.4,152.8 1201.1,153.7 1201.1,155.2 C1201.1,157.1 1199.5,158.5 1196.9,158.5 C1195.8,158.5 1194.7,158.2 1193.8,157.7 L1194,156.3 C1195.2,156.6 1195.8,156.6 1196.5,156.6 C1197.8,156.6 1198.3,156.1 1198.3,155.5 C1198.3,154.8 1198,154.5 1196.5,154 C1194.6,153.3 1193.8,152.5 1193.8,151 C1193.8,149.2 1195.3,147.9 1197.5,147.9 Z M1106.8,147.9 C1107.7,147.9 1108.6,148.1 1109.6,148.6 L1109.3,150 C1108.5,149.8 1107.9,149.7 1107.3,149.7 C1106.3,149.7 1105.8,150.2 1105.8,150.7 C1105.8,151.3 1106.1,151.6 1107.6,152.1 C1109.6,152.8 1110.3,153.7 1110.3,155.2 C1110.3,157.1 1108.8,158.5 1106.2,158.5 C1105.1,158.5 1104,158.2 1103.1,157.7 L1103.3,156.3 C1104.5,156.6 1105.1,156.6 1105.8,156.6 C1107.1,156.6 1107.6,156.1 1107.6,155.5 C1107.6,154.8 1107.3,154.5 1105.8,154 C1103.9,153.3 1103.1,152.5 1103.1,151 C1103.1,149.2 1104.6,147.9 1106.8,147.9 Z M1077,147.9 C1079.9,147.9 1081.5,149.4 1081.5,153 C1081.5,156.8 1079.6,158.5 1076.6,158.5 C1073.7,158.5 1072.1,157 1072.1,153.4 C1072.1,149.7 1074,147.9 1077,147.9 Z M1180.5,147.9 C1183.4,147.9 1185,149.4 1185,153 C1185,156.8 1183.1,158.5 1180.1,158.5 C1177.2,158.5 1175.6,157 1175.6,153.4 C1175.6,149.7 1177.5,147.9 1180.5,147.9 Z M1146.3,144 L1146.3,155.4 C1146.3,156.5 1146.4,156.7 1147,156.7 L1147.5,156.7 L1147.5,156.7 L1147.6,158.2 C1147.1,158.4 1146.5,158.5 1145.7,158.5 C1144.4,158.5 1143.7,158.1 1143.7,156.5 L1143.7,144 L1146.3,144 Z M1135.1,148.2 C1135.1,150.2 1135,152.3 1135,153.5 C1135,155.9 1135.5,156.4 1136.4,156.4 C1137,156.4 1137.6,156.1 1138.3,155.6 L1138.3,148.2 L1140.9,148.2 L1140.9,158.3 L1138.7,158.3 L1138.5,157.2 C1137.6,158 1136.6,158.5 1135.5,158.5 C1133.4,158.5 1132.4,157.2 1132.4,153.9 C1132.4,152.6 1132.5,150.4 1132.5,148.2 L1135.1,148.2 Z M1190,145.3 L1190,148.2 L1192.2,148.2 L1192.2,150 L1190,150 L1190,155.2 C1190,156.2 1190.2,156.6 1190.9,156.6 C1191.2,156.6 1191.6,156.6 1192.3,156.4 L1192.5,157.9 C1191.6,158.3 1190.8,158.5 1190,158.5 C1188.1,158.5 1187.4,157.8 1187.4,155.9 L1187.4,150 L1186.1,150 L1186.1,148.2 L1187.5,148.2 C1187.7,147.3 1187.9,146.4 1188.1,145.3 L1190,145.3 Z M1169.3,144.7 C1173,144.7 1174.3,146.4 1174.3,149 C1174.3,151.7 1172.8,153.7 1168.6,153.7 L1168,153.7 L1168,158.3 L1165.3,158.3 L1165.3,144.7 L1169.3,144.7 L1169.3,144.7 Z M1236,148 C1238,148 1239,149.3 1239,152.6 C1239,153.8 1238.9,156.1 1238.9,158.3 L1236.3,158.3 C1236.3,156.3 1236.4,154.2 1236.4,153 C1236.4,150.6 1236,150 1235.1,150 C1234.6,150 1233.8,150.4 1233.2,150.9 C1233.3,151.2 1233.3,151.7 1233.3,152.4 L1233.3,158.2 L1230.7,158.2 L1230.7,153 C1230.7,150.6 1230.3,150 1229.4,150 C1228.9,150 1228.2,150.3 1227.6,150.8 L1227.6,158.2 L1225,158.2 L1225,148.2 L1227.1,148.2 L1227.3,149.3 C1228.1,148.6 1229.1,148 1230.3,148 C1231.5,148 1232.4,148.6 1232.8,149.5 C1233.8,148.6 1234.8,148 1236,148 Z M1052.7,144 L1052.7,149.1 C1053.4,148.5 1054.4,148 1055.5,148 C1057.5,148 1058.6,149.3 1058.6,152.6 C1058.6,153.8 1058.5,156.1 1058.5,158.3 L1055.9,158.3 C1055.9,156.2 1056,154.1 1056,153 C1056,150.6 1055.5,150 1054.6,150 C1054.1,150 1053.4,150.3 1052.7,150.8 L1052.7,158.2 L1050.1,158.2 L1050.1,144 L1052.7,144 Z M1029.1,144.7 L1029.1,146.8 L1024.8,146.8 L1024.8,150.6 L1028.6,150.6 L1028.6,152.6 L1024.8,152.6 L1024.8,158.3 L1022.1,158.3 L1022.1,144.7 L1029.1,144.7 Z M1123.7,144 L1123.7,149.1 C1124.4,148.5 1125.4,148 1126.5,148 C1128.5,148 1129.6,149.3 1129.6,152.6 C1129.6,153.8 1129.5,156.1 1129.5,158.3 L1126.9,158.3 C1126.9,156.2 1127,154.1 1127,153 C1127,150.6 1126.5,150 1125.6,150 C1125.1,150 1124.4,150.3 1123.7,150.8 L1123.7,158.2 L1121.1,158.2 L1121.1,144 L1123.7,144 Z M1095.1,144 L1095.1,149.1 C1095.8,148.5 1096.8,148 1097.9,148 C1099.9,148 1101,149.3 1101,152.6 C1101,153.8 1100.9,156.1 1100.9,158.3 L1098.3,158.3 C1098.3,156.2 1098.4,154.1 1098.4,153 C1098.4,150.6 1097.9,150 1097,150 C1096.5,150 1095.8,150.3 1095.1,150.8 L1095.1,158.2 L1092.5,158.2 L1092.5,144 L1095.1,144 Z M1064,144 L1064,149.1 C1064.7,148.5 1065.7,148 1066.8,148 C1068.8,148 1069.9,149.3 1069.9,152.6 C1069.9,153.8 1069.8,156.1 1069.8,158.3 L1067.2,158.3 C1067.2,156.2 1067.3,154.1 1067.3,153 C1067.3,150.6 1066.8,150 1065.9,150 C1065.4,150 1064.7,150.3 1064,150.8 L1064,158.2 L1061.4,158.2 L1061.4,144 L1064,144 Z M1180.3,149.9 C1179.1,149.9 1178.3,150.7 1178.3,153 C1178.3,155.8 1179,156.6 1180.3,156.6 C1181.5,156.6 1182.3,155.8 1182.3,153.5 C1182.3,150.6 1181.6,149.9 1180.3,149.9 Z M1076.8,149.9 C1075.6,149.9 1074.8,150.7 1074.8,153 C1074.8,155.8 1075.5,156.6 1076.8,156.6 C1078,156.6 1078.8,155.8 1078.8,153.5 C1078.9,150.6 1078.1,149.9 1076.8,149.9 Z M1036,153.7 L1035.2,153.7 C1033.2,153.7 1032.7,154.3 1032.7,155.3 C1032.7,156.1 1033.2,156.6 1034.1,156.6 C1034.7,156.6 1035.4,156.3 1036,155.7 L1036,153.7 Z M1219.5,153.7 L1218.7,153.7 C1216.7,153.7 1216.2,154.3 1216.2,155.3 C1216.2,156.1 1216.7,156.6 1217.6,156.6 C1218.2,156.6 1218.9,156.3 1219.5,155.7 L1219.5,153.7 Z M1207.6,149.8 C1206.3,149.8 1205.4,150.9 1205.4,153.3 C1205.4,155.4 1206,156.5 1207.1,156.5 C1207.6,156.5 1208.2,156.2 1208.9,155.7 L1208.9,150 L1208.8,150 C1208.4,149.9 1208,149.8 1207.6,149.8 Z M1153.3,149.7 C1152.2,149.7 1151.6,150.7 1151.5,152.1 L1154.9,152.1 C1154.9,150.5 1154.4,149.7 1153.3,149.7 Z M1168.8,146.6 L1168,146.6 L1168,151.7 L1168.8,151.7 C1170.6,151.7 1171.4,150.8 1171.4,149.2 C1171.4,147.5 1170.7,146.6 1168.8,146.6 Z" id="Combined-Shape"></path>
        </g>
    </g>
</svg>