<?xml version="1.0" encoding="UTF-8"?>
<svg width="96px" height="93px" viewBox="0 0 96 93" version="1.1" xmlns="http://www.w3.org/2000/svg" xmlns:xlink="http://www.w3.org/1999/xlink">
    <!-- Generator: Sketch 61.2 (89653) - https://sketch.com -->
    <title>Group 7</title>
    <desc>Created with Sketch.</desc>
    <g id="Page-1" stroke="none" stroke-width="1" fill="none" fill-rule="evenodd">
        <g id="ICONS" transform="translate(-445.000000, -196.000000)">
            <g id="Group-7" transform="translate(445.000000, 196.000000)">
                <path d="M62.0021022,28.3997904 L94,29.1300859 L94,91 L32,91 L32,73.0940823 L15.3059943,73.8470438 C15.8224286,72.4992174 17.1173084,70.7119034 19.1906337,68.4851019 C21.263959,66.2583004 24.5328552,63.1440089 28.997322,59.1422272 C10.8743544,61.5706229 1.81287065,60.3907603 1.81287065,55.6026394 C1.81287065,52.9586545 1.81287065,35.039238 1.81287065,1.84439012 L62.0021022,2.34862355 L62.0021022,28.3997904 Z" id="Rectangle" fill="#ED3F42"></path>
                <path d="M3.9996093,60.9307104 L24.7710937,60.9307104 L14.8705079,70.5067529 C13.8978516,71.4456841 13.6171875,72.8943042 14.1691407,74.1291838 C14.7222657,75.3634762 15.9878907,76.1180269 17.334375,76.0146799 L30.3996093,75.0411039 L30.3996093,88.9917793 C30.3996093,91.2055197 32.1908203,93 34.3998047,93 L92.0003907,93 C94.209375,93 96,91.2055197 96,88.9917793 L96,31.2671756 C96,29.0534352 94.209375,27.2589548 92.0003907,27.2589548 L63.9996093,27.2589548 L63.9996093,4.00880802 C63.9996093,1.79506764 62.2089843,0 60,0 L3.9996093,0 C1.790625,0 0,1.79506764 0,4.00880802 L0,56.9224897 C0,59.1362301 1.790625,60.9307104 3.9996093,60.9307104 L3.9996093,60.9307104 Z M17.0964843,72.8126835 L29.8324218,60.4856136 L29.8880859,60.4327656 L46.3998047,44.4509689 L46.3998047,84.982384 L35.9554688,72.70229 C35.3355468,71.9958897 34.44375,71.5907223 33.5050782,71.5907223 C33.4347657,71.5907223 33.3662109,71.5907223 33.2976563,71.5907223 L17.0964843,72.8126835 Z M47.6460937,41.5137992 C46.4695312,41.0111568 45.1060547,41.2642397 44.1855468,42.1544333 L33.6,52.3928363 L33.6,31.2671756 C33.6,30.8244275 33.9580079,30.4656489 34.3998047,30.4656489 L60,30.4656489 C60.4417968,30.4656489 60.7998046,30.8244275 60.7998046,31.2671756 L60.7998046,56.9224897 C60.7998046,57.3652378 60.4417968,57.7240164 60,57.7240164 L49.6001953,57.7240164 L49.6001953,44.4638873 C49.5990234,43.1761598 48.8291016,42.0152672 47.6460937,41.5137992 L47.6460937,41.5137992 Z M92.8001953,31.2671756 L92.8001953,88.9917793 C92.7943359,89.4315913 92.4386718,89.7874339 92.0003907,89.793306 L34.3998046,89.793306 C33.9609375,89.7874339 33.6058593,89.4315913 33.6,88.9917793 L33.6,74.8813858 L43.9681641,87.0669407 C44.5699218,87.778626 45.4535157,88.188491 46.3839843,88.1896653 C46.7666016,88.188491 47.1457032,88.1197886 47.5042968,87.9859072 C48.7669921,87.530828 49.6066407,86.3282444 49.6001953,84.982384 L49.6001953,60.9307104 L60,60.9307104 C62.2089843,60.9307104 63.9996093,59.1362301 63.9996093,56.9224897 L63.9996093,31.2671756 C63.9996093,30.9976512 63.9726562,30.7298884 63.91875,30.4656489 L92.0003907,30.4656489 C92.4386718,30.4715208 92.7943359,30.8273635 92.8001953,31.2671756 Z M3.19980465,4.00880802 C3.2056641,3.56899596 3.5613282,3.21315326 3.9996093,3.20728134 L60,3.20728134 C60.4394532,3.21315326 60.7939454,3.56899596 60.7998046,4.00880802 L60.7998046,27.3399882 C60.5367187,27.2865531 60.2689453,27.2589548 60,27.2589548 L34.3998046,27.2589548 C32.1908203,27.2589548 30.3996093,29.0534352 30.3996093,31.2671756 L30.3996093,54.5173224 C30.4019532,54.8197299 30.4253907,55.1215502 30.4699218,55.4198473 L28.0875,57.7240164 L3.9996093,57.7240164 C3.5613282,57.7181445 3.2056641,57.3628891 3.19980465,56.9224897 L3.19980465,4.00880802 Z" id="Shape" fill="#131313" fill-rule="nonzero"></path>
                <path d="M9.49972527,27 C10.328145,27 11,26.2721904 11,25.3753719 L11,15.624628 C11,14.7272144 10.328145,14 9.49972527,14 C8.67130556,14 8,14.7272144 8,15.624628 L8,25.3753719 C8,26.2721904 8.67130556,27 9.49972527,27 Z" id="Path" fill="#131313" fill-rule="nonzero"></path>
                <path d="M9.49972527,11 C10.328145,11 11,10.2541503 11,9.33312984 L11,7.66687016 C11,6.74584969 10.328145,6 9.49972527,6 C8.67130556,6 8,6.74584969 8,7.66687016 L8,9.33312984 C8,10.2541503 8.67130556,11 9.49972527,11 Z" id="Path" fill="#131313" fill-rule="nonzero"></path>
            </g>
        </g>
    </g>
</svg>