<?xml version="1.0" encoding="UTF-8"?>
<svg width="79px" height="86px" viewBox="0 0 79 86" version="1.1" xmlns="http://www.w3.org/2000/svg" xmlns:xlink="http://www.w3.org/1999/xlink">
    <!-- Generator: Sketch 61.2 (89653) - https://sketch.com -->
    <title>Group 8</title>
    <desc>Created with Sketch.</desc>
    <g id="Page-1" stroke="none" stroke-width="1" fill="none" fill-rule="evenodd">
        <g id="ICONS" transform="translate(-469.000000, -68.000000)" fill-rule="nonzero">
            <g id="Group-8" transform="translate(469.000000, 68.000000)">
                <path d="M79,86 L74.014773,86 L74.014773,31.8801181 C74.014773,28.1077149 70.9781985,25.0386187 67.2451205,25.0386187 C63.5126913,25.0386187 60.4761168,28.1077149 60.4761168,31.8801181 L60.4761168,66.0502192 C60.4761168,77.0505473 51.622146,86 40.738383,86 C29.8546199,86 21,77.0505473 21,66.0502192 L25.985227,66.0502192 C25.985227,74.2720902 32.6036351,80.9613813 40.738383,80.9613813 C48.873131,80.9613813 55.4908898,74.2720902 55.4908898,66.0502192 L55.4908898,31.8801181 C55.4908898,25.3292578 60.7636762,20 67.2451205,20 C73.7265646,20 79,25.3292578 79,31.8801181 L79,86 Z" id="Path" fill="#ED3F42"></path>
                <path d="M28,2 L28,12 L28,12 L41,12 L41,2 C41,0.8954305 40.1045695,-2.02906125e-16 39,0 L30,0 C28.8954305,2.02906125e-16 28,0.8954305 28,2 Z" id="Path" fill="#ED3F42"></path>
                <path d="M5,2 L5,12 L5,12 L18,12 L18,2 C18,0.8954305 17.1045695,-2.02906125e-16 16,0 L7,0 C5.8954305,2.02906125e-16 5,0.8954305 5,2 Z" id="Path" fill="#ED3F42"></path>
                <path d="M46,18 L46,36.7827703 L46,36.7827703 C46,45.6702291 40.3386436,53.2715852 32.3978777,56.2410175 L32.3978777,65 C32.3978777,66.1045695 31.5024472,67 30.3978777,67 L15.6021222,67 C14.4975527,67 13.6021222,66.1045695 13.6021222,65 L13.6021222,56.2410175 L13.6021222,56.2410175 C5.66201416,53.2715852 0,45.6702291 0,36.7827703 L0,18 C-1.3527075e-16,16.8954305 0.8954305,16 2,16 L44,16 C45.1045695,16 46,16.8954305 46,18 Z" id="Path" fill="#ED3F42"></path>
                <path d="M46,18 L46,36.7827703 L46,36.7827703 C46,45.6702291 40.3388056,53.2715852 32.3982668,56.2410175 L32.3982668,65 C32.3982668,66.1045695 31.5028363,67 30.3982668,67 L23,67 L23,67 L23,16 L44,16 C45.1045695,16 46,16.8954305 46,18 Z" id="Path" fill="#ED3F42"></path>
                <polygon id="Path" fill="#131313" points="0 28 46 28 46 32 0 32"></polygon>
                <polygon id="Path-Copy" fill="#131313" points="0 39 46 39 46 43 0 43"></polygon>
            </g>
        </g>
    </g>
</svg>