<?xml version="1.0" encoding="UTF-8"?>
<svg width="86px" height="57px" viewBox="0 0 86 57" version="1.1" xmlns="http://www.w3.org/2000/svg" xmlns:xlink="http://www.w3.org/1999/xlink">
    <!-- Generator: Sketch 61.2 (89653) - https://sketch.com -->
    <title>Path</title>
    <desc>Created with Sketch.</desc>
    <g id="Page-1" stroke="none" stroke-width="1" fill="none" fill-rule="evenodd">
        <g id="Artboard-Copy-15" transform="translate(-65.000000, -48.000000)" stroke="#ED3F42" stroke-width="8.72">
            <path d="M117.753121,91.2678272 C115.461363,92.6577086 114.720446,94.2268153 115.530368,95.9751474 C120.413637,103.943907 125.195525,111.805053 129.876033,119.558586 C131.506818,122.13776 130.732496,125.547138 128.146537,127.173644 C127.262553,127.729648 126.23882,128.024714 125.193738,128.024714 L83.2656642,128.024714 C80.208435,128.024714 77.730061,125.552843 77.730061,122.503636 C77.730061,121.461297 78.0259025,120.44025 78.5833695,119.558586 L114.083697,62.7461857 C115.365323,60.6951561 114.741597,57.9935054 112.690568,56.7118799 L112.690568,56.7118799 L112.690568,56.7118799" id="Path" transform="translate(104.230061, 92.368297) rotate(-122.000000) translate(-104.230061, -92.368297) "></path>
        </g>
    </g>
</svg>