<?xml version="1.0" encoding="UTF-8"?>
<svg width="99px" height="90px" viewBox="0 0 99 90" version="1.1" xmlns="http://www.w3.org/2000/svg" xmlns:xlink="http://www.w3.org/1999/xlink">
    <!-- Generator: Sketch 61.2 (89653) - https://sketch.com -->
    <title>Artboard Copy 16</title>
    <desc>Created with Sketch.</desc>
    <g id="Artboard-Copy-16" stroke="none" stroke-width="1" fill="none" fill-rule="evenodd">
        <path d="M59.8042765,47.2678272 C57.5125191,48.6577086 56.7716015,50.2268153 57.5815237,51.9751474 C62.4647925,59.9439068 67.2466808,67.805053 71.9271887,75.5585859 C73.5579743,78.1377602 72.7836524,81.5471379 70.1976925,83.1736442 C69.3137091,83.7296484 68.2899758,84.0247136 67.244894,84.0247136 L25.3168201,84.0247136 C22.2595909,84.0247136 19.7812169,81.552843 19.7812169,78.5036361 C19.7812169,77.4612966 20.0770584,76.4402496 20.6345254,75.5585859 L56.1348531,18.7461857 C57.4164786,16.6951561 56.7927534,13.9935054 54.7417238,12.7118799 L54.7417238,12.7118799 L54.7417238,12.7118799" id="Path" stroke="#ED3F42" stroke-width="8.72" transform="translate(46.281217, 48.368297) rotate(-122.000000) translate(-46.281217, -48.368297) "></path>
        <path d="M11.5153018,80 L11.5153018,73.86 C11.5153018,72.64 12.3553018,72.26 14.0753018,72.26 L14.8153018,72.26 L14.8153018,69.5 L14.2953018,69.5 C12.6553018,69.5 11.8553018,70.62 11.6153018,71.78 L11.5153018,71.78 L11.5153018,69.5 L8.55530182,69.5 L8.55530182,80 L11.5153018,80 Z M20.5280727,80.24 C22.4480727,80.24 23.9880727,79.58 24.9280727,78.5 L23.4480727,76.66 C22.7880727,77.34 22.1080727,77.92 20.8680727,77.92 C19.2880727,77.92 18.5480727,77.04 18.5480727,75.66 L18.5480727,75.5 L25.2880727,75.5 L25.2880727,74.62 C25.2880727,71.78 23.8880727,69.26 20.4080727,69.26 C17.2480727,69.26 15.4880727,71.42 15.4880727,74.74 C15.4880727,78.1 17.3080727,80.24 20.5280727,80.24 Z M22.2280727,73.76 L18.5480727,73.76 L18.5480727,73.6 C18.5480727,72.3 19.2880727,71.44 20.4680727,71.44 C21.6480727,71.44 22.2280727,72.3 22.2280727,73.58 L22.2280727,73.76 Z M30.5608436,80.24 C33.2608436,80.24 35.0608436,78.76 35.0608436,76.74 C35.0608436,74.92 33.8808436,73.88 31.6008436,73.58 L30.4208436,73.42 C29.5608436,73.3 29.3208436,73 29.3208436,72.44 C29.3208436,71.92 29.7208436,71.56 30.7208436,71.56 C31.6008436,71.56 32.4808436,71.98 33.1408436,72.64 L34.8408436,70.9 C33.7808436,69.86 32.7608436,69.26 30.5608436,69.26 C28.0608436,69.26 26.4808436,70.66 26.4808436,72.68 C26.4808436,74.58 27.6408436,75.62 30.0208436,75.92 L31.1608436,76.06 C31.9008436,76.16 32.2208436,76.42 32.2208436,76.94 C32.2208436,77.56 31.8208436,77.94 30.6608436,77.94 C29.5208436,77.94 28.6208436,77.42 27.8808436,76.6 L26.1408436,78.36 C27.2208436,79.56 28.5408436,80.24 30.5608436,80.24 Z M40.9336145,80.24 C42.9936145,80.24 44.4936145,79.34 45.1936145,77.34 L42.8936145,76.34 C42.5936145,77.18 42.1136145,77.9 40.9336145,77.9 C39.7336145,77.9 39.1136145,77.06 39.1136145,75.74 L39.1136145,73.78 C39.1136145,72.46 39.7336145,71.6 40.9336145,71.6 C41.9736145,71.6 42.5536145,72.24 42.7336145,73.04 L45.1336145,72 C44.5136145,70.28 43.0536145,69.26 40.9336145,69.26 C37.7736145,69.26 36.0336145,71.38 36.0336145,74.74 C36.0336145,78.1 37.7736145,80.24 40.9336145,80.24 Z M48.5663855,84 C50.3663855,84 51.2463855,83.24 51.7863855,81.62 L55.8263855,69.5 L53.0663855,69.5 L51.5263855,74.4 L50.7463855,77.44 L50.6263855,77.44 L49.8663855,74.4 L48.3263855,69.5 L45.3863855,69.5 L49.0663855,80.54 L48.7063855,81.7 L46.7263855,81.7 L46.7263855,84 L48.5663855,84 Z M61.0391564,80.24 C64.1191564,80.24 65.9591564,78.12 65.9591564,74.74 C65.9591564,71.36 64.1191564,69.26 61.0391564,69.26 C57.9591564,69.26 56.1191564,71.36 56.1191564,74.74 C56.1191564,78.12 57.9591564,80.24 61.0391564,80.24 Z M61.0391564,77.9 C59.8791564,77.9 59.1991564,77.14 59.1991564,75.82 L59.1991564,73.68 C59.1991564,72.36 59.8791564,71.6 61.0391564,71.6 C62.1991564,71.6 62.8791564,72.36 62.8791564,73.68 L62.8791564,75.82 C62.8791564,77.14 62.1991564,77.9 61.0391564,77.9 Z M70.8319273,80.24 C72.5519273,80.24 73.4119273,79.3 73.7719273,78.24 L73.8719273,78.24 L73.8719273,80 L76.8319273,80 L76.8319273,69.5 L73.8719273,69.5 L73.8719273,76.32 C73.8719273,77.32 72.9319273,77.84 72.0119273,77.84 C70.9319273,77.84 70.5119273,77.12 70.5119273,75.84 L70.5119273,69.5 L67.5519273,69.5 L67.5519273,76.1 C67.5519273,78.74 68.6919273,80.24 70.8319273,80.24 Z" id="rescyou" fill="#ED3F42" fill-rule="nonzero"></path>
    </g>
</svg>