<?xml version="1.0" encoding="UTF-8"?>
<svg width="97px" height="97px" viewBox="0 0 97 97" version="1.1" xmlns="http://www.w3.org/2000/svg" xmlns:xlink="http://www.w3.org/1999/xlink">
    <!-- Generator: Sketch 61.2 (89653) - https://sketch.com -->
    <title>Group 4</title>
    <desc>Created with Sketch.</desc>
    <g id="Page-1" stroke="none" stroke-width="1" fill="none" fill-rule="evenodd">
        <g id="ICONS" transform="translate(-289.000000, -194.000000)" fill="#ED3F42" fill-rule="nonzero">
            <g id="Group-4" transform="translate(291.000000, 196.000000)">
                <path d="M80.4169091,23.6804224 C79.6925455,23.6804224 78.944,23.3954658 78.4327273,22.8887764 L70.7436364,15.271323 C70.2321818,14.7646335 69.9445455,14.0787205 69.9445455,13.3611056 C69.9445455,12.6434907 70.2321818,11.9019193 70.7436364,11.3954099 L78.4327273,3.77525466 C79.4554545,2.7620559 81.2665455,2.7620559 82.2892727,3.77525466 L90.0369091,11.4507081 C90.5483636,11.9573975 90.836,12.6433106 90.836,13.3609255 C90.836,14.0785404 90.5483636,14.7646335 90.0369091,15.2711429 L82.3450909,22.8885963 C81.8338182,23.3954658 81.1412727,23.6804224 80.4169091,23.6804224 Z" id="Path" stroke="#131313" stroke-width="3"></path>
                <path d="M77.4738865,23.293 C77.9836659,23.7966376 78.7295786,24.0798777 79.4515699,24.0798777 C80.1735611,24.0798777 80.8638384,23.7966376 81.3734367,23.293 L89.0400633,15.7214279 C89.5498428,15.2177904 89.8365371,14.5360087 89.8365371,13.8227162 C89.8365371,13.1094236 89.5498428,12.4274629 89.0400633,11.9240044 L85.1789323,8.10921397 L73.6419323,19.507214 L77.4738865,23.293 Z" id="Path"></path>
                <path d="M80.4169091,23.6804224 C79.6925455,23.6804224 78.944,23.3954658 78.4327273,22.8887764 L70.7436364,15.271323 C70.2321818,14.7646335 69.9445455,14.0787205 69.9445455,13.3611056 C69.9445455,12.6434907 70.2321818,11.9019193 70.7436364,11.3954099 L78.4327273,3.77525466 C79.4554545,2.7620559 81.2665455,2.7620559 82.2892727,3.77525466 L90.0369091,11.4507081 C90.5483636,11.9573975 90.836,12.6433106 90.836,13.3609255 C90.836,14.0785404 90.5483636,14.7646335 90.0369091,15.2711429 L82.3450909,22.8885963 C81.8338182,23.3954658 81.1412727,23.6804224 80.4169091,23.6804224 Z" id="Path" stroke="#131313" stroke-width="3"></path>
                <polygon id="Rectangle" stroke="#131313" stroke-width="3" transform="translate(47.000159, 46.409581) rotate(-135.000000) translate(-47.000159, -46.409581) " points="38.9621648 23.8970992 55.2492359 23.8208726 55.0381539 68.922062 38.7510828 68.9982885"></polygon>
                <path d="M13.6516364,89.8236584 C12.9538182,89.8236584 12.256,89.5597764 11.7234545,89.0320124 L3.97581818,81.3590807 C3.46436364,80.8523913 3.17672727,80.1664783 3.17672727,79.4488634 C3.17672727,78.7312484 3.46436364,78.0451553 3.97581818,77.538646 L11.6676364,69.9211925 C12.7329091,68.8658447 14.4589091,68.8658447 15.5241818,69.9211925 L23.2692727,77.5941242 C24.3345455,78.649472 24.3345455,80.3593913 23.2692727,81.4147391 L15.5801818,89.0321925 C15.0472727,89.5597764 14.3494545,89.8236584 13.6516364,89.8236584 Z" id="Path" stroke="#131313" stroke-width="3"></path>
                <polygon id="Rectangle" transform="translate(49.028082, 49.521301) rotate(-45.000000) translate(-49.028082, -49.521301) " points="26.5577928 45.332898 71.449251 45.6049675 71.4983706 53.7097042 26.6069124 53.4376347"></polygon>
                <path d="M85.6336508,42 L51,7.36634921 L56.7723356,1.59401361 C58.8976871,-0.531337868 62.3434921,-0.531337868 64.4686621,1.59401361 L91.4059864,28.5313379 C93.5313379,30.6566893 93.5313379,34.1024943 91.4059864,36.2276644 L85.6336508,42 Z" id="Path" stroke="#131313" stroke-width="3"></path>
                <polygon id="Rectangle" stroke="#131313" stroke-width="3" transform="translate(47.000159, 46.409581) rotate(-135.000000) translate(-47.000159, -46.409581) " points="38.9621648 23.8970992 55.2492359 23.8208726 55.0381539 68.922062 38.7510828 68.9982885"></polygon>
                <path d="M10.9830939,89.0378428 C11.5140764,89.5624279 12.2096092,89.8247205 12.9049607,89.8247205 C13.6003122,89.8247205 14.2960262,89.5624279 14.8268275,89.0378428 L22.4907358,81.4662707 C23.5525197,80.4172795 23.5525197,78.7176594 22.4907358,77.6686681 L18.6308734,73.85531 L7.12232533,85.2252009 L10.9830939,89.0378428 Z" id="Path"></path>
                <path d="M13.6516364,89.8236584 C12.9538182,89.8236584 12.256,89.5597764 11.7234545,89.0320124 L3.97581818,81.3590807 C3.46436364,80.8523913 3.17672727,80.1664783 3.17672727,79.4488634 C3.17672727,78.7312484 3.46436364,78.0451553 3.97581818,77.538646 L11.6676364,69.9211925 C12.7329091,68.8658447 14.4589091,68.8658447 15.5241818,69.9211925 L23.2692727,77.5941242 C24.3345455,78.649472 24.3345455,80.3593913 23.2692727,81.4147391 L15.5801818,89.0321925 C15.0472727,89.5597764 14.3494545,89.8236584 13.6516364,89.8236584 Z" id="Path" stroke="#131313" stroke-width="3"></path>
                <path d="M77.6272837,53.2123359 L38.8040738,15.1814364 C37.7319754,14.1312176 37.7319754,12.428601 38.8040738,11.3783823 L42.6863581,7.57532817 C44.8305548,5.47489061 48.3069133,5.47489061 50.4509269,7.57532817 L85.3918525,41.8031736 C87.5360492,43.9036112 87.5360492,47.3090235 85.3918525,49.4092818 L81.5095681,53.2123359 C80.4374698,54.2625547 78.699382,54.2625547 77.6272837,53.2123359 Z" id="Path" stroke="#131313" stroke-width="3"></path>
                <path d="M7.36631739,51 L42,85.6336826 L36.2276893,91.4059933 C34.102347,93.5313356 30.6565569,93.5313356 28.531396,91.4059933 L1.59400672,64.468604 C-0.531335574,62.3432617 -0.531335574,58.8974716 1.59400672,56.7723107 L7.36631739,51 Z" id="Path" stroke="#131313" stroke-width="3"></path>
                <path d="M15.3727163,39.787642 L54.1959262,77.8185593 C55.2680246,78.8687786 55.2680246,80.571396 54.1959262,81.6216152 L50.3136419,85.4246711 C48.1694452,87.5251096 44.6930867,87.5251096 42.5490731,85.4246711 L7.6081475,51.1969889 C5.46395083,49.0965504 5.46395083,45.6911365 7.6081475,43.5908772 L11.4904319,39.7878213 C12.5625302,38.7374228 14.300618,38.7374228 15.3727163,39.787642 Z" id="Path" stroke="#131313" stroke-width="3"></path>
                <path d="M28.5054545,90.4502509 C30.6354545,92.5166429 34.0890909,92.5166429 36.2192727,90.4502509 L42.0047273,84.8375671 L24.6492727,68.0000449 L14.7946851,77.6028351 L28.5054545,90.4502509 Z" id="Path" stroke="#131313" stroke-width="3"></path>
                <path d="M68.2616364,24.5252051 L85.6170909,41.6585128 L91.4025455,35.9472308 C93.5325455,33.8445385 93.5325455,30.4351795 91.4025455,28.3323077 L77.904,15.0064615 L68.2616364,24.5252051 Z" id="Path" stroke="#131313" stroke-width="3"></path>
                <path d="M42.4436957,85.2735246 C44.5829565,87.378829 48.0516087,87.378829 50.1912348,85.2735246 L54.064913,81.4609739 C55.1346348,80.4082319 55.1346348,78.7015246 54.064913,77.6487826 L34.3371986,58.8574873 L25.0127826,68.119113 L42.4436957,85.2735246 Z" id="Path" stroke="#131313" stroke-width="3"></path>
                <path d="M78.4985043,53.6035652 C79.5682261,54.6563072 81.3024609,54.6563072 82.3721826,53.6035652 L86.2458609,49.7910145 C88.3851217,47.6857101 88.3851217,44.2721159 86.2458609,42.1666319 L68.8149478,25.0120406 L59.1306609,34.5426087 L78.4985043,53.6035652 Z" id="Path" stroke="#131313" stroke-width="3"></path>
            </g>
        </g>
    </g>
</svg>